<svg id="Logo" xmlns="http://www.w3.org/2000/svg" viewBox="0 0 78.7 54.41">
    <style>
        .cls-1 { fill: #fff }
    </style>
    <title>Talesto Logo</title>
    <path class="cls-1" d="M73.93,65c.07.26-.21.75-.57,1s-.5.36-.73.51C65.51,71.08,57.14,75,52.19,77.75a2.79,2.79,0,0,1-1.2.45,2.78,2.78,0,0,1-1.12-.37c-5-2.56-13.48-6.52-20.57-11a2.58,2.58,0,0,1-1.13-1c-.33-.6-.05-.68.12-.85a20,20,0,0,1,1.79-1.66c.73-.54,1.84-.49,3.24.23,5.67,2.86,11.46,5.64,16,8a3.32,3.32,0,0,0,3.3,0c4.57-2.45,10.36-5.27,16-8.12,1.39-.69,2.49-.79,3.16-.26a13.63,13.63,0,0,1,2,1.64A.55.55,0,0,1,73.93,65Z" transform="translate(-11.63 -23.79)" />
    <path class="cls-1" d="M82.1,50.45c.15.35-.11.78-.65,1.11a4.29,4.29,0,0,1-.58.26c-8.49,3.38-19.41,8-28,12.14a7.3,7.3,0,0,1-1.91.56A10.13,10.13,0,0,1,49,64c-8.55-4.07-19.39-8.71-27.7-12.24a2,2,0,0,1-1.3-.89c-.35-.63.06-.79.32-1a21.06,21.06,0,0,1,2.82-2.25,4.63,4.63,0,0,1,4.25-.14c7,2.38,14.56,5.29,21.31,8.18a5.72,5.72,0,0,0,4.62,0c6.75-2.92,14.35-5.77,21.47-8.06a4.68,4.68,0,0,1,4.08.26,26.78,26.78,0,0,1,3,2.29A.94.94,0,0,1,82.1,50.45Z" transform="translate(-11.63 -23.79)" />
    <path class="cls-1" d="M89.53,35.53c.44.28,1,.53.71,1.1s-1,.59-1.68.71a236.48,236.48,0,0,0-35,9.67,6.59,6.59,0,0,1-5.19,0,284.17,284.17,0,0,0-35-10.46c-.58-.12-1.28-.19-1.61-.8s.26-.78.65-1c7.93-5.07,22-8.83,35.74-10.8a24.25,24.25,0,0,1,6,.12C67.61,26.47,81.59,30.49,89.53,35.53Z" transform="translate(-11.63 -23.79)" />
</svg>