<?xml version="1.0" encoding="utf-8"?>
<!-- Generator: Adobe Illustrator 27.0.0, SVG Export Plug-In . SVG Version: 6.00 Build 0)  -->
<svg version="1.1" id="main" xmlns="http://www.w3.org/2000/svg" xmlns:xlink="http://www.w3.org/1999/xlink" x="0px" y="0px"
	viewBox="0 0 512 512" style="enable-background:new 0 0 512 512;" xml:space="preserve">
	<style type="text/css">
	.st0{fill:#ffffff;stroke:#FFFFFF;stroke-miterlimit:10;}
</style>
	<path class="st0" d="M490.4,232.2c-0.9-14.6-2.9-29.1-5.9-43.4c-3-14.5-6.6-29-12.9-42.5C463.8,129,453,112.8,441,97.9
	c-17.3-20.6-41.4-35.1-67.5-42.1c-7.8-2.3-15.6-4.4-23.5-6.3c10.3,6.2,20.5,12.7,30.2,19.8c23,17.4,39.5,41.6,51.2,67.4
	c7.9,15.5,14.6,31.5,20,48c11.9,37.5,15.5,76.4,13,117.6c-1.6,30.2-6.8,51.8-21.2,76c-9.1,15.2-11.9,19.5-20.8,29.3
	c-9.5,10-3.1,3.5-11.9,12l-6,5c-14.3,10.4-14.6,11-29.9,18.9c-13.2,6.3-18.6,8.8-30.5,12.1c-28.3,8.5-57.4,14.4-87,15.3
	c-32.2,0.6-64.6-1.5-93.2-9.4c-14.6-4.5-29.3-9.3-42.5-16.9c-16.5-9.6-32.6-20.6-45.3-34.8c-16.7-18.1-26.8-41.1-32.9-64.5
	c-8.3-27.1-6.6-59.6,0-89.5c5.4-22.9,11-38.2,21.9-59.9c9.9-19,14.3-26.6,26.6-44.3c12.5-17.8,31.6-39.6,46.4-52.7
	c2.6-2.3,5.3-4.5,8-6.8c8.5-6.5,6.1-4.8,14.8-10.9c34.5-24.3,97-52,155-47.7c24.3,1.9,47.8,12.8,69.9,24.3
	c-14.7-12.6-30.2-25-48.9-31.3c-37.6-12.3-83.9-2.2-115.8,12c-58.8,23.9-105.8,69-142.6,119C48.2,199.2,24.4,247,18.1,298.2
	c-1.9,13.5-2.3,27.2-1.1,40.8c1.3,13.6,4.7,26.9,8.7,40c7.5,23.9,20.6,46.4,39.7,63.1c12.6,10.9,26.3,20.3,41,28.2
	c13.8,6.5,28.1,11.7,42.7,15.6c27.4,6.8,55.9,9,84.1,9c24.5-0.3,48.7-4.1,72.3-10.1c11.8-3.1,23.6-6.3,34.9-10.7
	c25.5-10.2,48.3-25.7,68.8-43.5c20.4-18.8,39.8-39.3,53.7-63.3c8.7-14.1,16.4-28.9,20.9-44.8c4.7-16.2,6-33,7-49.7
	C491.5,259.3,491.3,245.8,490.4,232.2z" />
	<path class="st0" d="M215.6,286.3c-17.8-11.7-36.5-22-55.9-30.8c3.1-12.4,5.2-25,7.9-37.5c1.5-6.9,4.2-12.9,6.8-19.4
	c-4,6.6-8.3,13-11.7,19.9c-5.2,10.5-9,21.6-12.8,32.6c-2.7-1.2-5.4-2.4-8.1-3.5c-18.6-8.4-37.3-16.9-57.2-21.9
	c26.8,21.3,38.6,33.7,59.3,43.4c-7.2,22.9-12.8,46.2-19.8,69.2c-1.3,4.5-2.6,9.1-4.1,13.6c0.6-1.1,1.2-2.2,1.8-3.4
	c7-13.7,14.3-27.2,20.5-41.3c4.6-11,8.8-22.2,12.4-33.6c10,3.6,20.2,6.6,30.6,8.9c10.3,2.4,20.6,4.5,31,6c1.2,0.2,2.4,0.3,3.6,0.4
	C218.4,288.1,217,287.2,215.6,286.3z" />
	<path class="st0" d="M324.6,320.3c-46.9,22.8-91.1,50.8-133.3,81.5c-1.8,1.3-3.4,2.7-4.9,4.2c2-1.6,4.1-2.9,6.4-3.9
	c35.2-18.5,70.6-37.9,99.2-55.3c15.7-9.4,31.4-18.8,47.1-28.3c12.9-7.8,23.5-14.3,37.1-20.8C358.2,303.3,341.5,312.2,324.6,320.3z"
	 />
	<path class="st0" d="M366.9,150.4c-0.9-0.9-2.5-0.8-3.8-0.9c-2.8-0.4-3.1-0.5-6-1.1c-19.9-3.4-40-4.7-60.1-7
	c13.8,7.1,28.4,12.4,43.2,16.8c2.9,0.9,5.9,1.7,8.8,2.6c1.5,0.5,3.1,1,3.8,2.6l0.1,0.1c-0.7,0.8-1.3,1.6-2,2.5
	c-6.3,8.2-10.7,17.7-15,27.1c-3.3,7.3-7,14.4-10.7,21.4c-1.4,2.4,1.2-1.4,1.8-2.2c5.9-8.1,11.9-16.3,17-25
	c5.3-9,14.2-24.2,16.5-26.4c0.1-0.2,0.4-0.5,0.7-0.8c2-2.2,3.8-4.6,5.2-7.2C367.1,152.2,367.2,151.2,366.9,150.4z" />
	<path class="st0" d="M316.9,222.8c-5.3-1.1-10.6-2.3-15.9-3.3c-8.3-1.7-17.6-3.4-27.1-5c-4.4-0.7-5.5-0.9-9.3-1.7
	c-3.5-0.6-7-1.9-10.1-3.6c-0.9-0.6-1.6-1.4-2-2.4c0.5-5,0.4-3.2,2.8-8.1c0.2-0.3,0.4-0.7,0.6-1c3.1-5.1,6.3-10.2,9.3-15.3
	c4.6-7.8,8.9-15.8,12.9-24c2.7-5.6,5.1-11.5,8.2-17c-5.4,7.1-10,14.8-14.9,22.2c-6.7,10.2-13.5,20.2-20.5,30.1
	c-5.6,8.4-12.8,16.4-16.5,25.9c-0.7,1.9-1,4.4,0.5,5.9c2.8,2,6.4,2.6,9.7,3.3c9.4,1.5,19.1,1,28.6,0.4c14.7-1.1,29.2-3,43.7-5.7
	l2.1-0.4L316.9,222.8z" />
</svg>