<?xml version="1.0" standalone="no"?>
<!DOCTYPE svg PUBLIC "-//W3C//DTD SVG 20010904//EN"
 "http://www.w3.org/TR/2001/REC-SVG-20010904/DTD/svg10.dtd">
<svg version="1.0" xmlns="http://www.w3.org/2000/svg"
 width="498.000000pt" height="498.000000pt" viewBox="0 0 498.000000 498.000000"
 preserveAspectRatio="xMidYMid meet">
<metadata>
Created by potrace 1.14, written by Peter Selinger 2001-2017
</metadata>
<g transform="translate(0.000000,498.000000) scale(0.100000,-0.100000)"
fill="#000000" stroke="none">
<path d="M2348 4965 c-2 -2 -43 -6 -93 -10 -49 -3 -149 -17 -221 -31 -770
-141 -1428 -641 -1775 -1349 -124 -253 -191 -476 -234 -775 -20 -136 -25 -409
-10 -545 12 -115 16 -141 41 -267 23 -123 99 -377 129 -434 8 -16 15 -33 15
-37 0 -18 132 -271 182 -350 392 -616 1018 -1029 1725 -1137 208 -32 555 -34
733 -5 431 71 777 212 1100 445 125 90 182 140 315 274 278 280 471 596 595
974 129 393 155 861 70 1267 -136 650 -511 1203 -1065 1570 -315 209 -663 339
-1043 391 -99 13 -455 28 -464 19z"/>
</g>
</svg>
